<svg id="visual" viewBox="0 0 900 600" width="900" height="600" xmlns="http://www.w3.org/2000/svg" xmlns:xlink="http://www.w3.org/1999/xlink" version="1.1"><path d="M701 600L710 540L656 480L746 420L719 360L683 300L818 240L764 180L800 120L818 60L737 0L900 0L900 60L900 120L900 180L900 240L900 300L900 360L900 420L900 480L900 540L900 600Z" fill="#888277"></path><path d="M449 600L575 540L521 480L494 420L386 360L377 300L449 240L449 180L584 120L431 60L602 0L738 0L819 60L801 120L765 180L819 240L684 300L720 360L747 420L657 480L711 540L702 600Z" fill="#a5a097"></path><path d="M323 600L467 540L431 480L341 420L251 360L251 300L386 240L377 180L530 120L287 60L548 0L603 0L432 60L585 120L450 180L450 240L378 300L387 360L495 420L522 480L576 540L450 600Z" fill="#c2bfb9"></path><path d="M80 600L161 540L107 480L80 420L107 360L116 300L179 240L143 180L125 120L89 60L116 0L549 0L288 60L531 120L378 180L387 240L252 300L252 360L342 420L432 480L468 540L324 600Z" fill="#e0dfdb"></path><path d="M0 600L0 540L0 480L0 420L0 360L0 300L0 240L0 180L0 120L0 60L0 0L117 0L90 60L126 120L144 180L180 240L117 300L108 360L81 420L108 480L162 540L81 600Z" fill="#ffffff"></path></svg>