<svg id="visual" viewBox="0 0 900 600" width="900" height="600" xmlns="http://www.w3.org/2000/svg" xmlns:xlink="http://www.w3.org/1999/xlink" version="1.1"><rect x="0" y="0" width="900" height="600" fill="#11181f"></rect><path d="M0 56L12.5 56.7C25 57.3 50 58.7 75 61.2C100 63.7 125 67.3 150 69.5C175 71.7 200 72.3 225 68.5C250 64.7 275 56.3 300 53.5C325 50.7 350 53.3 375 54C400 54.7 425 53.3 450 51.7C475 50 500 48 525 48.3C550 48.7 575 51.3 600 54.8C625 58.3 650 62.7 675 63.5C700 64.3 725 61.7 750 59.8C775 58 800 57 825 58.2C850 59.3 875 62.7 887.5 64.3L900 66" fill="none" stroke-linecap="round" stroke-linejoin="miter" stroke="#C62368" stroke-width="1"></path></svg>